<mxfile host="app.diagrams.net" modified="2023-08-22T11:42:18.739Z" agent="Mozilla/5.0 (Windows NT 10.0; Win64; x64) AppleWebKit/537.36 (KHTML, like Gecko) Chrome/116.0.0.0 Safari/537.36" etag="lk673_Jl6nrtVtGQFqNA" version="21.6.8" type="device">
  <diagram name="페이지-1" id="cuooR3etO0HNTm1BoonH">
    <mxGraphModel dx="2653" dy="2740" grid="1" gridSize="10" guides="1" tooltips="1" connect="1" arrows="1" fold="1" page="1" pageScale="1" pageWidth="827" pageHeight="1169" math="0" shadow="0">
      <root>
        <mxCell id="0" />
        <mxCell id="1" parent="0" />
        <mxCell id="mD3GauoBf7Zng7Qfwxj7-6" value="" style="edgeStyle=orthogonalEdgeStyle;rounded=0;orthogonalLoop=1;jettySize=auto;html=1;" edge="1" parent="1" source="mD3GauoBf7Zng7Qfwxj7-3" target="mD3GauoBf7Zng7Qfwxj7-5">
          <mxGeometry relative="1" as="geometry" />
        </mxCell>
        <mxCell id="mD3GauoBf7Zng7Qfwxj7-3" value="시작" style="rounded=1;whiteSpace=wrap;html=1;arcSize=50;fillColor=#f8cecc;strokeColor=#b85450;" vertex="1" parent="1">
          <mxGeometry x="40" y="-30" width="120" height="60" as="geometry" />
        </mxCell>
        <mxCell id="mD3GauoBf7Zng7Qfwxj7-8" value="" style="edgeStyle=orthogonalEdgeStyle;rounded=0;orthogonalLoop=1;jettySize=auto;html=1;" edge="1" parent="1" source="mD3GauoBf7Zng7Qfwxj7-5" target="mD3GauoBf7Zng7Qfwxj7-7">
          <mxGeometry relative="1" as="geometry" />
        </mxCell>
        <mxCell id="mD3GauoBf7Zng7Qfwxj7-79" value="" style="edgeStyle=orthogonalEdgeStyle;rounded=0;orthogonalLoop=1;jettySize=auto;html=1;" edge="1" parent="1" source="mD3GauoBf7Zng7Qfwxj7-5" target="mD3GauoBf7Zng7Qfwxj7-78">
          <mxGeometry relative="1" as="geometry" />
        </mxCell>
        <mxCell id="mD3GauoBf7Zng7Qfwxj7-5" value="타이틀 화면&lt;br&gt;(BGM:bgm_title)" style="whiteSpace=wrap;html=1;rounded=1;arcSize=0;fillColor=#d5e8d4;strokeColor=#82b366;" vertex="1" parent="1">
          <mxGeometry x="40" y="90" width="120" height="60" as="geometry" />
        </mxCell>
        <mxCell id="mD3GauoBf7Zng7Qfwxj7-22" value="" style="edgeStyle=orthogonalEdgeStyle;rounded=0;orthogonalLoop=1;jettySize=auto;html=1;" edge="1" parent="1" source="mD3GauoBf7Zng7Qfwxj7-7" target="mD3GauoBf7Zng7Qfwxj7-21">
          <mxGeometry relative="1" as="geometry" />
        </mxCell>
        <mxCell id="mD3GauoBf7Zng7Qfwxj7-7" value="시작 버튼" style="shape=parallelogram;perimeter=parallelogramPerimeter;whiteSpace=wrap;html=1;fixedSize=1;rounded=1;arcSize=0;fillColor=#e1d5e7;strokeColor=#9673a6;" vertex="1" parent="1">
          <mxGeometry x="40" y="210" width="120" height="60" as="geometry" />
        </mxCell>
        <mxCell id="mD3GauoBf7Zng7Qfwxj7-12" value="" style="edgeStyle=orthogonalEdgeStyle;rounded=0;orthogonalLoop=1;jettySize=auto;html=1;" edge="1" parent="1" source="mD3GauoBf7Zng7Qfwxj7-9" target="mD3GauoBf7Zng7Qfwxj7-11">
          <mxGeometry relative="1" as="geometry" />
        </mxCell>
        <mxCell id="mD3GauoBf7Zng7Qfwxj7-13" value="No" style="edgeLabel;html=1;align=center;verticalAlign=middle;resizable=0;points=[];" vertex="1" connectable="0" parent="mD3GauoBf7Zng7Qfwxj7-12">
          <mxGeometry x="-0.2889" y="2" relative="1" as="geometry">
            <mxPoint x="-2" as="offset" />
          </mxGeometry>
        </mxCell>
        <mxCell id="mD3GauoBf7Zng7Qfwxj7-25" value="" style="edgeStyle=orthogonalEdgeStyle;rounded=0;orthogonalLoop=1;jettySize=auto;html=1;" edge="1" parent="1" source="mD3GauoBf7Zng7Qfwxj7-9" target="mD3GauoBf7Zng7Qfwxj7-24">
          <mxGeometry relative="1" as="geometry" />
        </mxCell>
        <mxCell id="mD3GauoBf7Zng7Qfwxj7-27" value="Yes" style="edgeLabel;html=1;align=center;verticalAlign=middle;resizable=0;points=[];" vertex="1" connectable="0" parent="mD3GauoBf7Zng7Qfwxj7-25">
          <mxGeometry x="-0.624" y="-1" relative="1" as="geometry">
            <mxPoint x="19" y="-1" as="offset" />
          </mxGeometry>
        </mxCell>
        <mxCell id="mD3GauoBf7Zng7Qfwxj7-9" value="이전 세이브가 있는가?" style="rhombus;whiteSpace=wrap;html=1;rounded=1;arcSize=0;fillColor=#dae8fc;strokeColor=#6c8ebf;" vertex="1" parent="1">
          <mxGeometry x="20" y="480" width="160" height="80" as="geometry" />
        </mxCell>
        <mxCell id="mD3GauoBf7Zng7Qfwxj7-33" value="" style="edgeStyle=orthogonalEdgeStyle;rounded=0;orthogonalLoop=1;jettySize=auto;html=1;" edge="1" parent="1" source="mD3GauoBf7Zng7Qfwxj7-11" target="mD3GauoBf7Zng7Qfwxj7-28">
          <mxGeometry relative="1" as="geometry">
            <Array as="points">
              <mxPoint x="70" y="770" />
              <mxPoint x="70" y="770" />
            </Array>
          </mxGeometry>
        </mxCell>
        <mxCell id="mD3GauoBf7Zng7Qfwxj7-11" value="오프닝&lt;br&gt;(Dialog:Opening)&lt;br&gt;(BGM:bgm_cutscene_opening)" style="whiteSpace=wrap;html=1;rounded=1;arcSize=0;fillColor=#d5e8d4;strokeColor=#82b366;" vertex="1" parent="1">
          <mxGeometry x="10" y="630" width="180" height="60" as="geometry" />
        </mxCell>
        <mxCell id="mD3GauoBf7Zng7Qfwxj7-17" value="" style="edgeStyle=orthogonalEdgeStyle;rounded=0;orthogonalLoop=1;jettySize=auto;html=1;" edge="1" parent="1" source="mD3GauoBf7Zng7Qfwxj7-14" target="mD3GauoBf7Zng7Qfwxj7-16">
          <mxGeometry relative="1" as="geometry" />
        </mxCell>
        <mxCell id="mD3GauoBf7Zng7Qfwxj7-70" style="edgeStyle=orthogonalEdgeStyle;rounded=0;orthogonalLoop=1;jettySize=auto;html=1;" edge="1" parent="1" source="mD3GauoBf7Zng7Qfwxj7-14" target="mD3GauoBf7Zng7Qfwxj7-34">
          <mxGeometry relative="1" as="geometry">
            <Array as="points">
              <mxPoint x="460" y="750" />
              <mxPoint x="340" y="750" />
            </Array>
          </mxGeometry>
        </mxCell>
        <mxCell id="mD3GauoBf7Zng7Qfwxj7-71" style="edgeStyle=orthogonalEdgeStyle;rounded=0;orthogonalLoop=1;jettySize=auto;html=1;" edge="1" parent="1" source="mD3GauoBf7Zng7Qfwxj7-14" target="mD3GauoBf7Zng7Qfwxj7-35">
          <mxGeometry relative="1" as="geometry">
            <Array as="points">
              <mxPoint x="460" y="750" />
              <mxPoint x="570" y="750" />
            </Array>
          </mxGeometry>
        </mxCell>
        <mxCell id="mD3GauoBf7Zng7Qfwxj7-72" style="edgeStyle=orthogonalEdgeStyle;rounded=0;orthogonalLoop=1;jettySize=auto;html=1;" edge="1" parent="1" source="mD3GauoBf7Zng7Qfwxj7-14" target="mD3GauoBf7Zng7Qfwxj7-28">
          <mxGeometry relative="1" as="geometry">
            <Array as="points">
              <mxPoint x="460" y="750" />
              <mxPoint x="100" y="750" />
            </Array>
          </mxGeometry>
        </mxCell>
        <mxCell id="mD3GauoBf7Zng7Qfwxj7-14" value="스테이지 선택 화면" style="whiteSpace=wrap;html=1;rounded=1;arcSize=0;fillColor=#d5e8d4;strokeColor=#82b366;" vertex="1" parent="1">
          <mxGeometry x="400" y="490" width="120" height="60" as="geometry" />
        </mxCell>
        <mxCell id="mD3GauoBf7Zng7Qfwxj7-18" style="edgeStyle=orthogonalEdgeStyle;rounded=0;orthogonalLoop=1;jettySize=auto;html=1;entryX=1;entryY=0.5;entryDx=0;entryDy=0;" edge="1" parent="1" source="mD3GauoBf7Zng7Qfwxj7-16" target="mD3GauoBf7Zng7Qfwxj7-5">
          <mxGeometry relative="1" as="geometry" />
        </mxCell>
        <mxCell id="mD3GauoBf7Zng7Qfwxj7-16" value="이전 버튼" style="shape=parallelogram;perimeter=parallelogramPerimeter;whiteSpace=wrap;html=1;fixedSize=1;rounded=1;arcSize=0;fillColor=#e1d5e7;strokeColor=#9673a6;" vertex="1" parent="1">
          <mxGeometry x="400" y="210" width="120" height="60" as="geometry" />
        </mxCell>
        <mxCell id="mD3GauoBf7Zng7Qfwxj7-101" value="" style="edgeStyle=orthogonalEdgeStyle;rounded=0;orthogonalLoop=1;jettySize=auto;html=1;" edge="1" parent="1" source="mD3GauoBf7Zng7Qfwxj7-21" target="mD3GauoBf7Zng7Qfwxj7-100">
          <mxGeometry relative="1" as="geometry" />
        </mxCell>
        <mxCell id="mD3GauoBf7Zng7Qfwxj7-21" value="페이드아웃 연출&lt;br&gt;(1초)" style="whiteSpace=wrap;html=1;rounded=1;arcSize=0;fillColor=#f5f5f5;fontColor=#333333;strokeColor=#666666;" vertex="1" parent="1">
          <mxGeometry x="40" y="310" width="120" height="60" as="geometry" />
        </mxCell>
        <mxCell id="mD3GauoBf7Zng7Qfwxj7-26" value="" style="edgeStyle=orthogonalEdgeStyle;rounded=0;orthogonalLoop=1;jettySize=auto;html=1;" edge="1" parent="1" source="mD3GauoBf7Zng7Qfwxj7-24" target="mD3GauoBf7Zng7Qfwxj7-14">
          <mxGeometry relative="1" as="geometry" />
        </mxCell>
        <mxCell id="mD3GauoBf7Zng7Qfwxj7-24" value="페이드인 연출&lt;br&gt;(0.5초)" style="whiteSpace=wrap;html=1;rounded=1;arcSize=0;fillColor=#f5f5f5;fontColor=#333333;strokeColor=#666666;" vertex="1" parent="1">
          <mxGeometry x="240" y="490" width="120" height="60" as="geometry" />
        </mxCell>
        <mxCell id="mD3GauoBf7Zng7Qfwxj7-37" value="" style="edgeStyle=orthogonalEdgeStyle;rounded=0;orthogonalLoop=1;jettySize=auto;html=1;" edge="1" parent="1" source="mD3GauoBf7Zng7Qfwxj7-28" target="mD3GauoBf7Zng7Qfwxj7-36">
          <mxGeometry relative="1" as="geometry" />
        </mxCell>
        <mxCell id="mD3GauoBf7Zng7Qfwxj7-28" value="1스테이지&lt;br&gt;진입" style="whiteSpace=wrap;html=1;rounded=1;arcSize=0;fillColor=#f5f5f5;fontColor=#333333;strokeColor=#666666;" vertex="1" parent="1">
          <mxGeometry x="40" y="850" width="120" height="60" as="geometry" />
        </mxCell>
        <mxCell id="mD3GauoBf7Zng7Qfwxj7-60" value="" style="edgeStyle=orthogonalEdgeStyle;rounded=0;orthogonalLoop=1;jettySize=auto;html=1;" edge="1" parent="1" source="mD3GauoBf7Zng7Qfwxj7-34" target="mD3GauoBf7Zng7Qfwxj7-54">
          <mxGeometry relative="1" as="geometry" />
        </mxCell>
        <mxCell id="mD3GauoBf7Zng7Qfwxj7-34" value="2스테이지&lt;br&gt;진입" style="whiteSpace=wrap;html=1;rounded=1;arcSize=0;fillColor=#f5f5f5;fontColor=#333333;strokeColor=#666666;" vertex="1" parent="1">
          <mxGeometry x="280" y="850" width="120" height="60" as="geometry" />
        </mxCell>
        <mxCell id="mD3GauoBf7Zng7Qfwxj7-69" style="edgeStyle=orthogonalEdgeStyle;rounded=0;orthogonalLoop=1;jettySize=auto;html=1;entryX=0.5;entryY=0;entryDx=0;entryDy=0;" edge="1" parent="1" source="mD3GauoBf7Zng7Qfwxj7-35" target="mD3GauoBf7Zng7Qfwxj7-63">
          <mxGeometry relative="1" as="geometry" />
        </mxCell>
        <mxCell id="mD3GauoBf7Zng7Qfwxj7-35" value="3스테이지&lt;br&gt;진입" style="whiteSpace=wrap;html=1;rounded=1;arcSize=0;fillColor=#f5f5f5;fontColor=#333333;strokeColor=#666666;" vertex="1" parent="1">
          <mxGeometry x="510" y="850" width="120" height="60" as="geometry" />
        </mxCell>
        <mxCell id="mD3GauoBf7Zng7Qfwxj7-39" value="" style="edgeStyle=orthogonalEdgeStyle;rounded=0;orthogonalLoop=1;jettySize=auto;html=1;" edge="1" parent="1" source="mD3GauoBf7Zng7Qfwxj7-36" target="mD3GauoBf7Zng7Qfwxj7-38">
          <mxGeometry relative="1" as="geometry" />
        </mxCell>
        <mxCell id="mD3GauoBf7Zng7Qfwxj7-36" value="1스테이지 시작 다이얼로그&lt;br&gt;(Dialog:Stage1_Start)&lt;br style=&quot;border-color: var(--border-color);&quot;&gt;(BGM:bgm_cutscene)" style="whiteSpace=wrap;html=1;rounded=1;arcSize=0;fillColor=#d5e8d4;strokeColor=#82b366;" vertex="1" parent="1">
          <mxGeometry x="10" y="950" width="180" height="60" as="geometry" />
        </mxCell>
        <mxCell id="mD3GauoBf7Zng7Qfwxj7-41" value="" style="edgeStyle=orthogonalEdgeStyle;rounded=0;orthogonalLoop=1;jettySize=auto;html=1;" edge="1" parent="1" source="mD3GauoBf7Zng7Qfwxj7-38" target="mD3GauoBf7Zng7Qfwxj7-40">
          <mxGeometry relative="1" as="geometry" />
        </mxCell>
        <mxCell id="mD3GauoBf7Zng7Qfwxj7-38" value="인게임 플레이&lt;br&gt;(BGM:bgm_ingame_01)" style="whiteSpace=wrap;html=1;rounded=1;arcSize=0;shape=process;backgroundOutline=1;fillColor=#fad9d5;strokeColor=#ae4132;" vertex="1" parent="1">
          <mxGeometry x="10" y="1050" width="180" height="60" as="geometry" />
        </mxCell>
        <mxCell id="mD3GauoBf7Zng7Qfwxj7-45" value="" style="edgeStyle=orthogonalEdgeStyle;rounded=0;orthogonalLoop=1;jettySize=auto;html=1;" edge="1" parent="1" source="mD3GauoBf7Zng7Qfwxj7-40" target="mD3GauoBf7Zng7Qfwxj7-44">
          <mxGeometry relative="1" as="geometry" />
        </mxCell>
        <mxCell id="mD3GauoBf7Zng7Qfwxj7-40" value="스테이지 종료" style="whiteSpace=wrap;html=1;rounded=1;arcSize=0;fillColor=#f5f5f5;fontColor=#333333;strokeColor=#666666;" vertex="1" parent="1">
          <mxGeometry x="40" y="1150" width="120" height="60" as="geometry" />
        </mxCell>
        <mxCell id="mD3GauoBf7Zng7Qfwxj7-91" style="edgeStyle=orthogonalEdgeStyle;rounded=0;orthogonalLoop=1;jettySize=auto;html=1;" edge="1" parent="1" source="mD3GauoBf7Zng7Qfwxj7-44" target="mD3GauoBf7Zng7Qfwxj7-87">
          <mxGeometry relative="1" as="geometry">
            <Array as="points">
              <mxPoint x="100" y="1360" />
              <mxPoint x="700" y="1360" />
            </Array>
          </mxGeometry>
        </mxCell>
        <mxCell id="mD3GauoBf7Zng7Qfwxj7-44" value="1스테이지 종료 다이얼로그&lt;br&gt;(Dialog:Stage1_End)&lt;br style=&quot;border-color: var(--border-color);&quot;&gt;(BGM:bgm_cutscene)" style="whiteSpace=wrap;html=1;rounded=1;arcSize=0;fillColor=#d5e8d4;strokeColor=#82b366;" vertex="1" parent="1">
          <mxGeometry x="10" y="1250" width="180" height="60" as="geometry" />
        </mxCell>
        <mxCell id="mD3GauoBf7Zng7Qfwxj7-53" value="" style="edgeStyle=orthogonalEdgeStyle;rounded=0;orthogonalLoop=1;jettySize=auto;html=1;" edge="1" source="mD3GauoBf7Zng7Qfwxj7-54" target="mD3GauoBf7Zng7Qfwxj7-56" parent="1">
          <mxGeometry relative="1" as="geometry" />
        </mxCell>
        <mxCell id="mD3GauoBf7Zng7Qfwxj7-54" value="2스테이지 시작 다이얼로그&lt;br&gt;(Dialog:Stage2_Start)&lt;br style=&quot;border-color: var(--border-color);&quot;&gt;(BGM:bgm_cutscene)" style="whiteSpace=wrap;html=1;rounded=1;arcSize=0;fillColor=#d5e8d4;strokeColor=#82b366;" vertex="1" parent="1">
          <mxGeometry x="250" y="950" width="180" height="60" as="geometry" />
        </mxCell>
        <mxCell id="mD3GauoBf7Zng7Qfwxj7-55" value="" style="edgeStyle=orthogonalEdgeStyle;rounded=0;orthogonalLoop=1;jettySize=auto;html=1;" edge="1" source="mD3GauoBf7Zng7Qfwxj7-56" target="mD3GauoBf7Zng7Qfwxj7-58" parent="1">
          <mxGeometry relative="1" as="geometry" />
        </mxCell>
        <mxCell id="mD3GauoBf7Zng7Qfwxj7-56" value="인게임 플레이&lt;br style=&quot;border-color: var(--border-color);&quot;&gt;(BGM:bgm_ingame_02)" style="whiteSpace=wrap;html=1;rounded=1;arcSize=0;shape=process;backgroundOutline=1;fillColor=#fad9d5;strokeColor=#ae4132;" vertex="1" parent="1">
          <mxGeometry x="250" y="1050" width="180" height="60" as="geometry" />
        </mxCell>
        <mxCell id="mD3GauoBf7Zng7Qfwxj7-57" value="" style="edgeStyle=orthogonalEdgeStyle;rounded=0;orthogonalLoop=1;jettySize=auto;html=1;" edge="1" source="mD3GauoBf7Zng7Qfwxj7-58" target="mD3GauoBf7Zng7Qfwxj7-61" parent="1">
          <mxGeometry relative="1" as="geometry">
            <mxPoint x="340" y="1249.9999999999998" as="targetPoint" />
          </mxGeometry>
        </mxCell>
        <mxCell id="mD3GauoBf7Zng7Qfwxj7-58" value="스테이지 종료" style="whiteSpace=wrap;html=1;rounded=1;arcSize=0;fillColor=#f5f5f5;fontColor=#333333;strokeColor=#666666;" vertex="1" parent="1">
          <mxGeometry x="280" y="1150" width="120" height="60" as="geometry" />
        </mxCell>
        <mxCell id="mD3GauoBf7Zng7Qfwxj7-90" style="edgeStyle=orthogonalEdgeStyle;rounded=0;orthogonalLoop=1;jettySize=auto;html=1;" edge="1" parent="1" source="mD3GauoBf7Zng7Qfwxj7-61" target="mD3GauoBf7Zng7Qfwxj7-87">
          <mxGeometry relative="1" as="geometry">
            <Array as="points">
              <mxPoint x="340" y="1360" />
              <mxPoint x="700" y="1360" />
            </Array>
          </mxGeometry>
        </mxCell>
        <mxCell id="mD3GauoBf7Zng7Qfwxj7-61" value="2스테이지 종료 다이얼로그&lt;br&gt;(Dialog:Stage2_End)&lt;br style=&quot;border-color: var(--border-color);&quot;&gt;(BGM:bgm_cutscene)" style="whiteSpace=wrap;html=1;rounded=1;arcSize=0;fillColor=#d5e8d4;strokeColor=#82b366;" vertex="1" parent="1">
          <mxGeometry x="250" y="1250" width="180" height="60" as="geometry" />
        </mxCell>
        <mxCell id="mD3GauoBf7Zng7Qfwxj7-62" value="" style="edgeStyle=orthogonalEdgeStyle;rounded=0;orthogonalLoop=1;jettySize=auto;html=1;" edge="1" source="mD3GauoBf7Zng7Qfwxj7-63" target="mD3GauoBf7Zng7Qfwxj7-65" parent="1">
          <mxGeometry relative="1" as="geometry" />
        </mxCell>
        <mxCell id="mD3GauoBf7Zng7Qfwxj7-63" value="3스테이지 시작 다이얼로그&lt;br&gt;(Dialog:Stage3_Start)&lt;br style=&quot;border-color: var(--border-color);&quot;&gt;(BGM:bgm_cutscene)" style="whiteSpace=wrap;html=1;rounded=1;arcSize=0;fillColor=#d5e8d4;strokeColor=#82b366;" vertex="1" parent="1">
          <mxGeometry x="480" y="950" width="180" height="60" as="geometry" />
        </mxCell>
        <mxCell id="mD3GauoBf7Zng7Qfwxj7-64" value="" style="edgeStyle=orthogonalEdgeStyle;rounded=0;orthogonalLoop=1;jettySize=auto;html=1;" edge="1" source="mD3GauoBf7Zng7Qfwxj7-65" target="mD3GauoBf7Zng7Qfwxj7-67" parent="1">
          <mxGeometry relative="1" as="geometry" />
        </mxCell>
        <mxCell id="mD3GauoBf7Zng7Qfwxj7-65" value="인게임 플레이&lt;br style=&quot;border-color: var(--border-color);&quot;&gt;(BGM:bgm_ingame_03)" style="whiteSpace=wrap;html=1;rounded=1;arcSize=0;shape=process;backgroundOutline=1;fillColor=#fad9d5;strokeColor=#ae4132;" vertex="1" parent="1">
          <mxGeometry x="480" y="1050" width="180" height="60" as="geometry" />
        </mxCell>
        <mxCell id="mD3GauoBf7Zng7Qfwxj7-66" value="" style="edgeStyle=orthogonalEdgeStyle;rounded=0;orthogonalLoop=1;jettySize=auto;html=1;" edge="1" source="mD3GauoBf7Zng7Qfwxj7-67" target="mD3GauoBf7Zng7Qfwxj7-68" parent="1">
          <mxGeometry relative="1" as="geometry">
            <mxPoint x="570" y="1249.9999999999998" as="targetPoint" />
          </mxGeometry>
        </mxCell>
        <mxCell id="mD3GauoBf7Zng7Qfwxj7-67" value="스테이지 종료" style="whiteSpace=wrap;html=1;rounded=1;arcSize=0;fillColor=#f5f5f5;fontColor=#333333;strokeColor=#666666;" vertex="1" parent="1">
          <mxGeometry x="510" y="1150" width="120" height="60" as="geometry" />
        </mxCell>
        <mxCell id="mD3GauoBf7Zng7Qfwxj7-76" style="edgeStyle=orthogonalEdgeStyle;rounded=0;orthogonalLoop=1;jettySize=auto;html=1;strokeColor=#CC0000;" edge="1" parent="1" source="mD3GauoBf7Zng7Qfwxj7-68" target="mD3GauoBf7Zng7Qfwxj7-77">
          <mxGeometry relative="1" as="geometry">
            <mxPoint x="570" y="1430" as="targetPoint" />
          </mxGeometry>
        </mxCell>
        <mxCell id="mD3GauoBf7Zng7Qfwxj7-68" value="3스테이지 종료 다이얼로그&lt;br&gt;(Dialog:Stage3_End)&lt;br style=&quot;border-color: var(--border-color);&quot;&gt;(BGM:bgm_cutscene)" style="whiteSpace=wrap;html=1;rounded=1;arcSize=0;fillColor=#d5e8d4;strokeColor=#82b366;" vertex="1" parent="1">
          <mxGeometry x="480" y="1250" width="180" height="60" as="geometry" />
        </mxCell>
        <mxCell id="mD3GauoBf7Zng7Qfwxj7-93" style="edgeStyle=orthogonalEdgeStyle;rounded=0;orthogonalLoop=1;jettySize=auto;html=1;entryX=0.5;entryY=1;entryDx=0;entryDy=0;" edge="1" parent="1" source="mD3GauoBf7Zng7Qfwxj7-77" target="mD3GauoBf7Zng7Qfwxj7-92">
          <mxGeometry relative="1" as="geometry" />
        </mxCell>
        <mxCell id="mD3GauoBf7Zng7Qfwxj7-77" value="엔딩&lt;br style=&quot;border-color: var(--border-color);&quot;&gt;(Dialog:Ending)&lt;br style=&quot;border-color: var(--border-color);&quot;&gt;(BGM:bgm_ending)" style="whiteSpace=wrap;html=1;rounded=1;arcSize=0;fillColor=#d5e8d4;strokeColor=#82b366;" vertex="1" parent="1">
          <mxGeometry x="480" y="1400" width="180" height="60" as="geometry" />
        </mxCell>
        <mxCell id="mD3GauoBf7Zng7Qfwxj7-81" value="" style="edgeStyle=orthogonalEdgeStyle;rounded=0;orthogonalLoop=1;jettySize=auto;html=1;" edge="1" parent="1" source="mD3GauoBf7Zng7Qfwxj7-78" target="mD3GauoBf7Zng7Qfwxj7-80">
          <mxGeometry relative="1" as="geometry" />
        </mxCell>
        <mxCell id="mD3GauoBf7Zng7Qfwxj7-78" value="종료 버튼" style="shape=parallelogram;perimeter=parallelogramPerimeter;whiteSpace=wrap;html=1;fixedSize=1;rounded=1;arcSize=0;fillColor=#e1d5e7;strokeColor=#9673a6;" vertex="1" parent="1">
          <mxGeometry x="-110" y="90" width="120" height="60" as="geometry" />
        </mxCell>
        <mxCell id="mD3GauoBf7Zng7Qfwxj7-80" value="종료" style="rounded=1;whiteSpace=wrap;html=1;arcSize=50;fillColor=#f8cecc;strokeColor=#b85450;" vertex="1" parent="1">
          <mxGeometry x="-110" y="-30" width="120" height="60" as="geometry" />
        </mxCell>
        <mxCell id="mD3GauoBf7Zng7Qfwxj7-85" value="&lt;font style=&quot;font-size: 18px;&quot;&gt;※BGM은 해당 장면 진입 시, 적혀 있는 음악으로 교체&lt;br&gt;※이미 재생 중인 음악이라면 교체하지 않음&lt;/font&gt;" style="text;html=1;strokeColor=none;fillColor=none;align=center;verticalAlign=middle;whiteSpace=wrap;rounded=0;" vertex="1" parent="1">
          <mxGeometry x="160" y="-20" width="446" height="30" as="geometry" />
        </mxCell>
        <mxCell id="mD3GauoBf7Zng7Qfwxj7-89" style="edgeStyle=orthogonalEdgeStyle;rounded=0;orthogonalLoop=1;jettySize=auto;html=1;entryX=1;entryY=0.5;entryDx=0;entryDy=0;" edge="1" parent="1" source="mD3GauoBf7Zng7Qfwxj7-86" target="mD3GauoBf7Zng7Qfwxj7-14">
          <mxGeometry relative="1" as="geometry" />
        </mxCell>
        <mxCell id="mD3GauoBf7Zng7Qfwxj7-86" value="페이드인 연출&lt;br&gt;(0.5초)" style="whiteSpace=wrap;html=1;rounded=1;arcSize=0;fillColor=#f5f5f5;fontColor=#333333;strokeColor=#666666;" vertex="1" parent="1">
          <mxGeometry x="640" y="490" width="120" height="60" as="geometry" />
        </mxCell>
        <mxCell id="mD3GauoBf7Zng7Qfwxj7-98" value="" style="edgeStyle=orthogonalEdgeStyle;rounded=0;orthogonalLoop=1;jettySize=auto;html=1;" edge="1" parent="1" source="mD3GauoBf7Zng7Qfwxj7-87" target="mD3GauoBf7Zng7Qfwxj7-97">
          <mxGeometry relative="1" as="geometry" />
        </mxCell>
        <mxCell id="mD3GauoBf7Zng7Qfwxj7-87" value="페이드아웃 연출&lt;br&gt;(0.5초)" style="whiteSpace=wrap;html=1;rounded=1;arcSize=0;fillColor=#f5f5f5;fontColor=#333333;strokeColor=#666666;" vertex="1" parent="1">
          <mxGeometry x="640" y="770" width="120" height="60" as="geometry" />
        </mxCell>
        <mxCell id="mD3GauoBf7Zng7Qfwxj7-95" value="" style="edgeStyle=orthogonalEdgeStyle;rounded=0;orthogonalLoop=1;jettySize=auto;html=1;" edge="1" parent="1" source="mD3GauoBf7Zng7Qfwxj7-92" target="mD3GauoBf7Zng7Qfwxj7-94">
          <mxGeometry relative="1" as="geometry" />
        </mxCell>
        <mxCell id="mD3GauoBf7Zng7Qfwxj7-92" value="페이드아웃 연출&lt;br&gt;(4초)" style="whiteSpace=wrap;html=1;rounded=1;arcSize=0;fillColor=#f5f5f5;fontColor=#333333;strokeColor=#666666;" vertex="1" parent="1">
          <mxGeometry x="780" y="770" width="120" height="60" as="geometry" />
        </mxCell>
        <mxCell id="mD3GauoBf7Zng7Qfwxj7-96" style="edgeStyle=orthogonalEdgeStyle;rounded=0;orthogonalLoop=1;jettySize=auto;html=1;entryX=1;entryY=0.25;entryDx=0;entryDy=0;" edge="1" parent="1" source="mD3GauoBf7Zng7Qfwxj7-94" target="mD3GauoBf7Zng7Qfwxj7-5">
          <mxGeometry relative="1" as="geometry">
            <Array as="points">
              <mxPoint x="840" y="100" />
              <mxPoint x="160" y="100" />
            </Array>
          </mxGeometry>
        </mxCell>
        <mxCell id="mD3GauoBf7Zng7Qfwxj7-94" value="대기&lt;br&gt;(1초)" style="whiteSpace=wrap;html=1;rounded=1;arcSize=0;fillColor=#f5f5f5;fontColor=#333333;strokeColor=#666666;" vertex="1" parent="1">
          <mxGeometry x="780" y="630" width="120" height="60" as="geometry" />
        </mxCell>
        <mxCell id="mD3GauoBf7Zng7Qfwxj7-99" value="" style="edgeStyle=orthogonalEdgeStyle;rounded=0;orthogonalLoop=1;jettySize=auto;html=1;" edge="1" parent="1" source="mD3GauoBf7Zng7Qfwxj7-97" target="mD3GauoBf7Zng7Qfwxj7-86">
          <mxGeometry relative="1" as="geometry" />
        </mxCell>
        <mxCell id="mD3GauoBf7Zng7Qfwxj7-97" value="대기&lt;br&gt;(0.5초)" style="whiteSpace=wrap;html=1;rounded=1;arcSize=0;fillColor=#f5f5f5;fontColor=#333333;strokeColor=#666666;" vertex="1" parent="1">
          <mxGeometry x="640" y="630" width="120" height="60" as="geometry" />
        </mxCell>
        <mxCell id="mD3GauoBf7Zng7Qfwxj7-102" value="" style="edgeStyle=orthogonalEdgeStyle;rounded=0;orthogonalLoop=1;jettySize=auto;html=1;" edge="1" parent="1" source="mD3GauoBf7Zng7Qfwxj7-100" target="mD3GauoBf7Zng7Qfwxj7-9">
          <mxGeometry relative="1" as="geometry" />
        </mxCell>
        <mxCell id="mD3GauoBf7Zng7Qfwxj7-100" value="대기&lt;br&gt;(0.5초)" style="whiteSpace=wrap;html=1;rounded=1;arcSize=0;fillColor=#f5f5f5;fontColor=#333333;strokeColor=#666666;" vertex="1" parent="1">
          <mxGeometry x="40" y="390" width="120" height="60" as="geometry" />
        </mxCell>
      </root>
    </mxGraphModel>
  </diagram>
</mxfile>
